# xmcd
#
# Track frame offsets:
#	150
#	15214
#	31051
#	45629
#	63593
#	81648
#	100299
#	113448
#	128243
#	140469
#	154690
#	168201
#	187549
#	204051
#	216957
#	231757
#	248073
#	263070
#	279941
#
# Disc length: 3928 seconds
#
# Revision: 0
# Processed by: cddbd v1.5.2PL0 Copyright (c) Steve Scherf et al.
# Submitted via: EZCDAudioConverter 7.1.0.1
#
DISCID=ed0f5613
DTITLE=Nu Country Traxx Volume 229 US
DYEAR=2018
DGENRE=country
TTITLE0=Kenny Chesney - Get Along
TTITLE1=Chris Stapleton - Millionaire
TTITLE2=Mason Ramsey - Famous
TTITLE3=Miranda Lambert - Keeper Of The Flame
TTITLE4=Devin Dawson - Asking For A Friend
TTITLE5=Carrie Underwood - Cry Pretty
TTITLE6=Jordan Davis - Take It From Me
TTITLE7=Granger Smith - You're In It
TTITLE8=Tyler Farr - Love By The Moon
TTITLE9=Parmalee - Hotdamalama
TTITLE10=Shane Owens - Lie
TTITLE11=Sara Evans - All The Love You Left Me
TTITLE12=Kacey Musgraves - Butterflies
TTITLE13=Abi - A Day Without
TTITLE14=Sam Shupak - Something Blue
TTITLE15=Homer Hart - Buckle Up
TTITLE16=Charles Parker - Party Girls
TTITLE17=Lefroy - Mexican Getaway
TTITLE18=David James - Downtown Kids
EXTD=
EXTT0=
EXTT1=
EXTT2=
EXTT3=
EXTT4=
EXTT5=
EXTT6=
EXTT7=
EXTT8=
EXTT9=
EXTT10=
EXTT11=
EXTT12=
EXTT13=
EXTT14=
EXTT15=
EXTT16=
EXTT17=
EXTT18=
PLAYORDER=
